<svg height="492pt" viewBox="0 -33 492.0197 492" width="492pt" xmlns="http://www.w3.org/2000/svg" xmlns:xlink="http://www.w3.org/1999/xlink"><linearGradient id="a"><stop offset=".322" stop-color="#a163f5"/><stop offset=".466" stop-color="#b074ee"/><stop offset=".752" stop-color="#d8a1dd"/><stop offset=".898" stop-color="#efbad3"/></linearGradient><linearGradient id="b" gradientUnits="userSpaceOnUse" x1="246.008827" x2="246.008827" xlink:href="#a" y1="441.123848" y2="-18.079152"/><linearGradient id="c" gradientUnits="userSpaceOnUse" x1="256.290827" x2="256.290827" xlink:href="#a" y1="441.123848" y2="-18.079152"/><linearGradient id="d" gradientUnits="userSpaceOnUse" x1="317.350827" x2="317.350827" xlink:href="#a" y1="441.123848" y2="-18.079152"/><linearGradient id="e" gradientUnits="userSpaceOnUse" x1="236.746827" x2="236.746827" xlink:href="#a" y1="441.123848" y2="-18.079152"/><linearGradient id="f" gradientUnits="userSpaceOnUse" x1="175.138827" x2="175.138827" xlink:href="#a" y1="441.123848" y2="-18.079152"/><path d="m261.382812 336.597656v-20.460937c8.253907-6.542969 11.460938-17.589844 8-27.535157-3.464843-9.945312-12.84375-16.609374-23.375-16.609374s-19.90625 6.664062-23.371093 16.609374c-3.464844 9.945313-.253907 20.992188 7.996093 27.535157v20.460937c0 8.492188 6.882813 15.375 15.375 15.375 8.492188 0 15.375-6.882812 15.375-15.375zm-18.75 0v-23.613281c.003907-2.144531-1.140624-4.128906-3-5.199219-4.996093-2.886718-7.433593-8.769531-5.941406-14.34375 1.496094-5.574218 6.546875-9.449218 12.316406-9.449218 5.773438 0 10.824219 3.875 12.316407 9.449218 1.492187 5.574219-.941407 11.457032-5.941407 14.34375-1.855468 1.070313-3 3.054688-3 5.199219v23.613281c0 1.863282-1.511718 3.375-3.375 3.375-1.863281 0-3.375-1.511718-3.375-3.375zm0 0" fill="url(#b)"/><path d="m265.367188 383.210938c-6.371094 1.300781-12.855469 1.953124-19.359376 1.953124-3.3125 0-6 2.683594-6 6 0 3.3125 2.6875 6 6 6 7.3125 0 14.601563-.734374 21.765626-2.195312 2.113281-.417969 3.839843-1.933594 4.527343-3.976562.6875-2.042969.226563-4.292969-1.207031-5.902344s-3.617188-2.324219-5.726562-1.878906zm0 0" fill="url(#c)"/><path d="m284.273438 377.238281c-2.015626.820313-3.433594 2.667969-3.695313 4.832031-.261719 2.164063.664063 4.296876 2.425781 5.578126 1.761719 1.28125 4.082032 1.507812 6.058594.589843 39.457031-17.152343 64.980469-56.082031 64.972656-99.105469 0-3.316406-2.6875-6-6-6s-6 2.683594-6 6c.007813 38.25-22.683594 72.855469-57.761718 88.105469zm0 0" fill="url(#d)"/><path d="m227.480469 194.785156c.363281 0 .730469-.03125 1.089843-.097656 5.753907-1.050781 11.589844-1.582031 17.4375-1.578125 3.316407 0 6-2.6875 6-6 0-3.316406-2.683593-6-6-6-6.574218 0-13.132812.59375-19.597656 1.777344-3.046875.5625-5.164062 3.351562-4.886718 6.4375.28125 3.085937 2.863281 5.453125 5.960937 5.460937zm0 0" fill="url(#e)"/><path d="m203.957031 189.597656c-40.023437 16.871094-66.027343 56.101563-65.976562 99.539063 0 3.3125 2.6875 6 6 6 3.316406 0 6-2.6875 6-6-.042969-38.613281 23.070312-73.488281 58.652343-88.484375 3.050782-1.292969 4.480469-4.8125 3.1875-7.867188-1.289062-3.050781-4.808593-4.476562-7.863281-3.1875zm0 0" fill="url(#f)"/><path d="m398.441406 226.097656c9.898438-.042968 18.445313-6.9375 20.589844-16.601562.925781-4.160156 4.605469-7.125 8.867188-7.144532h26.230468c2.953125 9.085938 12.074219 14.675782 21.507813 13.179688 9.4375-1.492188 16.382812-9.625 16.382812-19.179688 0-9.550781-6.945312-17.6875-16.382812-19.179687-9.433594-1.496094-18.554688 4.09375-21.507813 13.179687h-26.230468c-9.898438.046876-18.445313 6.9375-20.589844 16.601563-.925782 4.15625-4.605469 7.125-8.867188 7.144531h-37.570312c-3.179688-4.851562-6.660156-9.496094-10.425782-13.910156v-95.738281c0-57.679688-46.757812-104.4375002-104.4375-104.4375002-57.679687 0-104.4375 46.7578122-104.4375 104.4375002v95.738281c-3.761718 4.414062-7.242187 9.058594-10.421874 13.910156h-37.570313c-4.261719-.019531-7.941406-2.984375-8.867187-7.144531-2.144532-9.664063-10.695313-16.554687-20.59375-16.597656h-26.230469c-2.949219-9.085938-12.070313-14.675781-21.503907-13.179688-9.4375 1.492188-16.382812 9.625-16.382812 19.179688 0 9.550781 6.945312 17.683593 16.382812 19.179687 9.433594 1.492188 18.554688-4.097656 21.503907-13.179687h26.230469c4.261718.019531 7.945312 2.984375 8.867187 7.144531 2.144531 9.664062 10.695313 16.554688 20.59375 16.601562h30.539063c-6.746094 12.980469-11.351563 26.964844-13.648438 41.414063-5.167969-.507813-9.640625-3.820313-11.632812-8.617187-4.039063-9.75-13.5625-16.097657-24.117188-16.078126h-4.832031c-2.949219-9.085937-12.070313-14.675781-21.507813-13.179687-9.433594 1.492187-16.382812 9.625-16.382812 19.179687 0 9.550782 6.949218 17.6875 16.382812 19.179688 9.4375 1.496094 18.558594-4.09375 21.507813-13.179688h4.832031c5.707031-.011718 10.855469 3.421876 13.042969 8.695313 3.660156 8.816406 11.851562 14.921875 21.347656 15.910156-.226563 3.210938-.347656 6.445313-.347656 9.710938 0 2.210937.058593 4.414062.160156 6.597656l-19.378906-.109375c-10.0625-.003906-19.320313 5.519531-24.097657 14.375-2.6875 4.980469-7.886718 8.082031-13.546874 8.078125h-9.523438c-3.09375-9.019531-12.285156-14.453125-21.679688-12.8125-9.394531 1.640625-16.203124 9.867187-16.054687 19.402344.148437 9.535156 7.210937 17.546875 16.652344 18.894531 9.4375 1.347656 18.457031-4.371094 21.269531-13.484375h9.332031c10.066407.007813 19.320313-5.515625 24.101563-14.375 2.675781-4.96875 7.867187-8.070313 13.511718-8.074219l20.515626.113282c2.007812 14.757812 6.421874 29.085937 13.070312 42.410156h-11.5c-13.488281.058594-25.351562 8.933594-29.210938 21.859375-2.339843 7.828125-9.527343 13.207031-17.699218 13.238281h-10.148438c-2.953125-9.085938-12.074218-14.675781-21.507812-13.179688-9.4375 1.492188-16.382813 9.628907-16.382813 19.179688 0 9.554688 6.945313 17.6875 16.382813 19.183594 9.433594 1.492187 18.554687-4.097656 21.507812-13.183594h10.148438c13.488281-.054688 25.351562-8.929688 29.210937-21.851562 2.339844-7.832032 9.527344-13.210938 17.699219-13.242188h18.253906c25.09375 39.96875 68.96875 64.230469 116.164063 64.230469 47.191406 0 91.070312-24.261719 116.160156-64.230469h18.257813c8.171874.03125 15.359374 5.410156 17.699218 13.242188 3.859375 12.921874 15.71875 21.796874 29.207032 21.855468h10.152343c2.949219 9.082032 12.070313 14.671875 21.503907 13.179688 9.4375-1.496094 16.382812-9.628906 16.382812-19.179688 0-9.554687-6.945312-17.6875-16.382812-19.179687-9.433594-1.496094-18.554688 4.09375-21.503907 13.179687h-10.15625c-8.171875-.035156-15.359375-5.410156-17.699219-13.242187-3.859374-12.925781-15.722656-21.800781-29.210937-21.855469h-11.5c6.648437-13.328125 11.0625-27.65625 13.070313-42.414062l20.480468-.113282c5.660156-.003906 10.859375 3.101563 13.546875 8.078125 4.777344 8.859375 14.035157 14.378907 24.097657 14.375h9.335937c2.808594 9.148438 11.855469 14.890625 21.328125 13.542969s16.558594-9.382812 16.710938-18.953125c.148437-9.566406-6.683594-17.820313-16.113282-19.460937-9.425781-1.644532-18.644531 3.816406-21.738281 12.871093h-9.523437c-5.65625.003907-10.859376-3.097656-13.542969-8.078125-4.785157-8.867187-14.058594-14.390625-24.136719-14.375l-19.34375.105469c.097656-2.1875.160156-4.386719.160156-6.597656 0-3.265625-.121094-6.5-.347656-9.710938 9.496094-.992187 17.6875-7.097656 21.347656-15.914062 2.183594-5.273438 7.335938-8.707031 13.039063-8.695313h4.832031c2.953125 9.082032 12.074219 14.671875 21.507812 13.179688 9.433594-1.496094 16.378907-9.628906 16.378907-19.179688 0-9.554687-6.945313-17.6875-16.378907-19.179687-9.433593-1.496094-18.554687 4.09375-21.507812 13.179687h-4.828125c-10.550781-.019531-20.074219 6.328125-24.117187 16.078125-1.992188 4.796875-6.460938 8.109375-11.628907 8.617188-2.296875-14.449219-6.90625-28.433594-13.652343-41.417969zm74.148438-37.160156c4.097656 0 7.421875 3.320312 7.421875 7.417969 0 4.097656-3.324219 7.421875-7.421875 7.421875s-7.421875-3.324219-7.421875-7.421875c.003906-4.097657 3.324219-7.417969 7.421875-7.421875zm-453.160156 14.835938c-4.101563 0-7.421876-3.320313-7.421876-7.421876 0-4.097656 3.324219-7.417968 7.421876-7.417968 4.097656 0 7.417968 3.324218 7.417968 7.421875-.003906 4.09375-3.324218 7.414062-7.417968 7.417969zm32 52.460937c-4.101563 0-7.421876-3.320313-7.421876-7.417969s3.320313-7.421875 7.421876-7.421875c4.097656 0 7.417968 3.324219 7.417968 7.421875-.003906 4.097656-3.324218 7.414063-7.417968 7.417969zm-27.421876 75.523437c-4.097656 0-7.417968-3.320312-7.421874-7.417968 0-4.097656 3.324218-7.421875 7.421874-7.421875 4.097657 0 7.421876 3.320312 7.421876 7.417969-.007813 4.097656-3.324219 7.417968-7.421876 7.421874zm12.066407 66.914063c-4.097657 0-7.421875-3.324219-7.421875-7.421875s3.320312-7.417969 7.421875-7.417969c4.097656 0 7.417969 3.320313 7.417969 7.417969-.003907 4.097656-3.324219 7.414062-7.417969 7.421875zm419.871093-14.839844c4.097657 0 7.417969 3.320313 7.417969 7.417969 0 4.101562-3.320312 7.421875-7.417969 7.421875-4.097656 0-7.421874-3.324219-7.421874-7.421875.007812-4.09375 3.324218-7.414062 7.421874-7.417969zm12.0625-66.914062c4.097657 0 7.421876 3.324219 7.421876 7.421875s-3.320313 7.417968-7.421876 7.417968c-4.097656 0-7.417968-3.320312-7.417968-7.421874.003906-4.09375 3.324218-7.414063 7.417968-7.417969zm-27.417968-75.519531c4.097656 0 7.421875 3.320312 7.421875 7.417968-.003907 4.101563-3.324219 7.421875-7.421875 7.421875s-7.421875-3.324219-7.421875-7.421875c.007812-4.09375 3.324219-7.414062 7.421875-7.417968zm-194.582032-229.386719c51.027344.054687 92.382813 41.40625 92.4375 92.4375v83.320312c-5.054687-4.613281-10.441406-8.84375-16.125-12.65625v-70.664062c0-42.148438-34.164062-76.3125-76.3125-76.3125-42.144531 0-76.3125 34.164062-76.3125 76.3125v70.664062c-5.679687 3.8125-11.070312 8.042969-16.125 12.65625v-83.320312c.058594-51.03125 41.410157-92.382813 92.4375-92.4375zm64.3125 155.90625c-40.210937-21.375-88.414062-21.375-128.625 0v-63.46875c0-35.519531 28.796876-64.3125 64.3125-64.3125 35.519532 0 64.3125 28.792969 64.3125 64.3125zm-64.3125 246.46875c-69.171874 0-125.25-56.078125-125.25-125.25 0-69.175781 56.078126-125.25 125.25-125.25 69.175782 0 125.25 56.074219 125.25 125.25-.078124 69.140625-56.109374 125.171875-125.25 125.25zm0 0" fill="url(#b)"/></svg>