<?xml version="1.0"?>
<svg xmlns="http://www.w3.org/2000/svg" xmlns:xlink="http://www.w3.org/1999/xlink" xmlns:svgjs="http://svgjs.com/svgjs" version="1.1" width="512" height="512" x="0" y="0" viewBox="0 0 512 512" style="enable-background:new 0 0 512 512" xml:space="preserve" class=""><g><g xmlns="http://www.w3.org/2000/svg"><g><circle cx="256" cy="256" r="136" fill="#78b9eb" data-original="#78b9eb" style=""/><path d="M206.44,382.69a136.567,136.567,0,0,0,99.12,0" fill="#787680" data-original="#787680" style="" class=""/><ellipse cx="256" cy="256" rx="48" ry="136" fill="#006df0" data-original="#006df0" style="" class=""/><path d="M173.67,185.57h-.01a95.967,95.967,0,0,1-123.32,0h-.01C57.65,175.35,68.23,168,80,168H96a16,16,0,0,0,32,0h16C155.77,168,166.35,175.35,173.67,185.57Z" fill="#006df0" data-original="#006df0" style="" class=""/><path d="M208,112a95.779,95.779,0,0,1-34.33,73.57C166.35,175.35,155.77,168,144,168H128a16,16,0,0,1-32,0H80c-11.77,0-22.35,7.35-29.67,17.57A96,96,0,1,1,208,112Z" fill="#ffda44" data-original="#ffda44" style="" class=""/><g><path d="M150.89,71.55C103.51,94.88,72,87,72,87V80a40.015,40.015,0,0,1,40-40,39.305,39.305,0,0,1,28.28,12.22,41.7,41.7,0,0,1,10.53,19.02C150.84,71.34,150.87,71.45,150.89,71.55Z" fill="#3e3d42" data-original="#3e3d42" style="" class=""/><path d="M152,81v31a40,40,0,0,1-80,0V87s31.51,7.88,78.89-15.45A40.59,40.59,0,0,1,152,81Z" fill="#ffdaaa" data-original="#ffdaaa" style="" class=""/><path d="M152,71c-.37.19-.74.37-1.11.55-.02-.1-.05-.21-.08-.31Z" fill="#787680" data-original="#787680" style="" class=""/><path d="M128,152v16a16,16,0,0,1-32,0V152Z" fill="#ffdaaa" data-original="#ffdaaa" style="" class=""/></g><path d="M173.67,185.57h-.01a95.967,95.967,0,0,1-123.32,0h-.01C57.65,175.35,68.23,168,80,168H96a16,16,0,0,0,32,0h16C155.77,168,166.35,175.35,173.67,185.57Z" fill="#006df0" data-original="#006df0" style="" class=""/><path d="M208,112a95.779,95.779,0,0,1-34.33,73.57C166.35,175.35,155.77,168,144,168H128a16,16,0,0,1-32,0H80c-11.77,0-22.35,7.35-29.67,17.57A96,96,0,1,1,208,112Z" fill="#ffda44" data-original="#ffda44" style="" class=""/><g><path d="M150.89,71.55C103.51,94.88,72,87,72,87V80a40.015,40.015,0,0,1,40-40,39.305,39.305,0,0,1,28.28,12.22,41.7,41.7,0,0,1,10.53,19.02C150.84,71.34,150.87,71.45,150.89,71.55Z" fill="#3e3d42" data-original="#3e3d42" style="" class=""/><path d="M152,81v31a40,40,0,0,1-80,0V87s31.51,7.88,78.89-15.45A40.59,40.59,0,0,1,152,81Z" fill="#ffdaaa" data-original="#ffdaaa" style="" class=""/><path d="M152,71c-.37.19-.74.37-1.11.55-.02-.1-.05-.21-.08-.31Z" fill="#787680" data-original="#787680" style="" class=""/><path d="M128,152v16a16,16,0,0,1-32,0V152Z" fill="#ffdaaa" data-original="#ffdaaa" style="" class=""/></g><path d="M459.67,185.57h-.01a95.967,95.967,0,0,1-123.32,0h-.01C343.65,175.35,354.23,168,366,168h16a16,16,0,0,0,32,0h16C441.77,168,452.35,175.35,459.67,185.57Z" fill="#006df0" data-original="#006df0" style="" class=""/><path d="M494,112a95.779,95.779,0,0,1-34.33,73.57C452.35,175.35,441.77,168,430,168H414a16,16,0,0,1-32,0H366c-11.77,0-22.35,7.35-29.67,17.57A96,96,0,1,1,494,112Z" fill="#ff5023" data-original="#ff5023" style="" class=""/><g><path d="M436.89,71.55C389.51,94.88,358,87,358,87V80a40.015,40.015,0,0,1,40-40,39.305,39.305,0,0,1,28.28,12.22,41.7,41.7,0,0,1,10.53,19.02C436.84,71.34,436.87,71.45,436.89,71.55Z" fill="#3e3d42" data-original="#3e3d42" style="" class=""/><path d="M438,81v31a40,40,0,0,1-80,0V87s31.51,7.88,78.89-15.45A40.59,40.59,0,0,1,438,81Z" fill="#ffdaaa" data-original="#ffdaaa" style="" class=""/><path d="M438,71c-.37.19-.74.37-1.11.55-.02-.1-.05-.21-.08-.31Z" fill="#787680" data-original="#787680" style="" class=""/><path d="M414,152v16a16,16,0,0,1-32,0V152Z" fill="#ffdaaa" data-original="#ffdaaa" style="" class=""/></g><path d="M173.67,473.57h-.01a95.967,95.967,0,0,1-123.32,0h-.01C57.65,463.35,68.23,456,80,456H96a16,16,0,0,0,32,0h16C155.77,456,166.35,463.35,173.67,473.57Z" fill="#006df0" data-original="#006df0" style="" class=""/><path d="M208,400a95.779,95.779,0,0,1-34.33,73.57C166.35,463.35,155.77,456,144,456H128a16,16,0,0,1-32,0H80c-11.77,0-22.35,7.35-29.67,17.57A96,96,0,1,1,208,400Z" fill="#ffda44" data-original="#ffda44" style="" class=""/><g><path d="M150.89,359.55C103.51,382.88,72,375,72,375v-7a40.015,40.015,0,0,1,40-40,39.305,39.305,0,0,1,28.28,12.22,41.7,41.7,0,0,1,10.53,19.02C150.84,359.34,150.87,359.45,150.89,359.55Z" fill="#3e3d42" data-original="#3e3d42" style="" class=""/><path d="M152,369v31a40,40,0,0,1-80,0V375s31.51,7.88,78.89-15.45A40.59,40.59,0,0,1,152,369Z" fill="#ffdaaa" data-original="#ffdaaa" style="" class=""/><path d="M152,359c-.37.19-.74.37-1.11.55-.02-.1-.05-.21-.08-.31Z" fill="#787680" data-original="#787680" style="" class=""/><path d="M128,440v16a16,16,0,0,1-32,0V440Z" fill="#ffdaaa" data-original="#ffdaaa" style="" class=""/></g><path d="M173.67,473.57h-.01a95.967,95.967,0,0,1-123.32,0h-.01C57.65,463.35,68.23,456,80,456H96a16,16,0,0,0,32,0h16C155.77,456,166.35,463.35,173.67,473.57Z" fill="#006df0" data-original="#006df0" style="" class=""/><path d="M208,400a95.779,95.779,0,0,1-34.33,73.57C166.35,463.35,155.77,456,144,456H128a16,16,0,0,1-32,0H80c-11.77,0-22.35,7.35-29.67,17.57A96,96,0,1,1,208,400Z" fill="#787680" data-original="#787680" style="" class=""/><g><path d="M150.89,359.55C103.51,382.88,72,375,72,375v-7a40.015,40.015,0,0,1,40-40,39.305,39.305,0,0,1,28.28,12.22,41.7,41.7,0,0,1,10.53,19.02C150.84,359.34,150.87,359.45,150.89,359.55Z" fill="#3e3d42" data-original="#3e3d42" style="" class=""/><path d="M152,369v31a40,40,0,0,1-80,0V375s31.51,7.88,78.89-15.45A40.59,40.59,0,0,1,152,369Z" fill="#ffdaaa" data-original="#ffdaaa" style="" class=""/><path d="M152,359c-.37.19-.74.37-1.11.55-.02-.1-.05-.21-.08-.31Z" fill="#787680" data-original="#787680" style="" class=""/><path d="M128,440v16a16,16,0,0,1-32,0V440Z" fill="#ffdaaa" data-original="#ffdaaa" style="" class=""/></g><path d="M459.67,473.57h-.01a95.967,95.967,0,0,1-123.32,0h-.01C343.65,463.35,354.23,456,366,456h16a16,16,0,0,0,32,0h16C441.77,456,452.35,463.35,459.67,473.57Z" fill="#006df0" data-original="#006df0" style="" class=""/><path d="M494,400a95.779,95.779,0,0,1-34.33,73.57C452.35,463.35,441.77,456,430,456H414a16,16,0,0,1-32,0H366c-11.77,0-22.35,7.35-29.67,17.57A96,96,0,1,1,494,400Z" fill="#ff9811" data-original="#ff9811" style="" class=""/><g><path d="M436.89,359.55C389.51,382.88,358,375,358,375v-7a40.015,40.015,0,0,1,40-40,39.305,39.305,0,0,1,28.28,12.22,41.7,41.7,0,0,1,10.53,19.02C436.84,359.34,436.87,359.45,436.89,359.55Z" fill="#3e3d42" data-original="#3e3d42" style="" class=""/><path d="M438,369v31a40,40,0,0,1-80,0V375s31.51,7.88,78.89-15.45A40.59,40.59,0,0,1,438,369Z" fill="#ffdaaa" data-original="#ffdaaa" style="" class=""/><path d="M438,359c-.37.19-.74.37-1.11.55-.02-.1-.05-.21-.08-.31Z" fill="#787680" data-original="#787680" style="" class=""/><path d="M414,440v16a16,16,0,0,1-32,0V440Z" fill="#ffdaaa" data-original="#ffdaaa" style="" class=""/></g></g><path d="M400,296c-1.9,0-3.79.06-5.67.16a145.059,145.059,0,0,0,0-80.32c1.88.1,3.77.16,5.67.16A104,104,0,1,0,296,112c0,1.9.05,3.79.16,5.67a145.059,145.059,0,0,0-80.32,0c.11-1.88.16-3.77.16-5.67A104,104,0,1,0,112,216c1.9,0,3.8-.06,5.67-.16a145.059,145.059,0,0,0,0,80.32c-1.87-.1-3.77-.16-5.67-.16A104,104,0,1,0,216,400c0-1.9-.05-3.79-.16-5.67a145.059,145.059,0,0,0,80.32,0c-.11,1.88-.16,3.77-.16,5.67A104,104,0,1,0,400,296Zm0-96a87.469,87.469,0,0,1-50.09-15.69c5.52-5.35,11.86-8.31,18.09-8.31h9.38a23.99,23.99,0,0,0,45.24,0H432c6.23,0,12.57,2.96,18.09,8.31A87.469,87.469,0,0,1,400,200Zm-88.74,32h70.5a129.691,129.691,0,0,1,0,48h-70.5q.72-11.79.74-24Q312,243.805,311.26,232ZM374.35,96.28c12.94,0,32.94-2.34,57.65-12.79V112a32,32,0,0,1-64,0V96.08C369.88,96.2,371.99,96.28,374.35,96.28ZM368,80.03V80a32.042,32.042,0,0,1,32-32c12.65,0,23.86,8.04,29.01,19.34-19.84,8.84-36.12,11.77-46.71,12.62A90.9,90.9,0,0,1,368,80.03Zm40,79.29V168a8,8,0,0,1-16,0v-8.68a47.4,47.4,0,0,0,16,0ZM400,24a87.957,87.957,0,0,1,62.4,149.99C453.65,165.01,442.92,160,432,160h-8v-6.46A48.012,48.012,0,0,0,448,112V80c0-.23-.01-.45-.03-.68a49.189,49.189,0,0,0-13.93-32.66A47.093,47.093,0,0,0,400,32a48.051,48.051,0,0,0-48,48v32a48.012,48.012,0,0,0,24,41.54V160h-8c-10.92,0-21.65,5.01-30.4,13.99A87.957,87.957,0,0,1,400,24ZM298.63,135.27a104.332,104.332,0,0,0,78.1,78.1c.31.88.6,1.75.89,2.63H309.94c-2.32-21.94-6.55-42.09-12.45-58.83-3.88-10.99-8.06-19.41-12.33-25.84A127.933,127.933,0,0,1,298.63,135.27ZM296,256q0,12.525-.74,24H216.74q-.72-11.475-.74-24,0-12.525.74-24h78.52Q295.98,243.475,296,256ZM256,128c13.68,0,31.77,32.65,37.88,88H218.12C224.23,160.65,242.32,128,256,128Zm-29.16,3.33c-4.27,6.43-8.45,14.85-12.33,25.84-5.9,16.74-10.13,36.89-12.45,58.83H134.38c.29-.88.58-1.75.89-2.63a104.332,104.332,0,0,0,78.1-78.1A127.933,127.933,0,0,1,226.84,131.33ZM200.74,280h-70.5a129.691,129.691,0,0,1,0-48h70.5q-.72,11.79-.74,24Q200,268.2,200.74,280ZM24,112a88,88,0,1,1,150.4,61.99C165.65,165.01,154.92,160,144,160h-8v-6.46A48.012,48.012,0,0,0,160,112V80c0-.23-.01-.45-.03-.68a49.189,49.189,0,0,0-13.93-32.66A47.093,47.093,0,0,0,112,32,48.051,48.051,0,0,0,64,80v32a48.012,48.012,0,0,0,24,41.54V160H80c-10.92,0-21.65,5.01-30.4,13.99A87.738,87.738,0,0,1,24,112Zm88,32a32.042,32.042,0,0,1-32-32V96.08c1.88.12,3.99.2,6.35.2,12.94,0,32.94-2.34,57.65-12.79V112A32.042,32.042,0,0,1,112,144Zm8,15.32V168a8,8,0,0,1-16,0v-8.68a47.4,47.4,0,0,0,16,0ZM80,80.03V80a32.042,32.042,0,0,1,32-32c12.65,0,23.86,8.04,29.01,19.34-19.84,8.84-36.12,11.77-46.71,12.62A90.9,90.9,0,0,1,80,80.03ZM112,200a87.469,87.469,0,0,1-50.09-15.69C67.43,178.96,73.77,176,80,176h9.38a23.99,23.99,0,0,0,45.24,0H144c6.23,0,12.57,2.96,18.09,8.31A87.469,87.469,0,0,1,112,200Zm0,288a87.469,87.469,0,0,1-50.09-15.69C67.43,466.96,73.77,464,80,464h9.38a23.99,23.99,0,0,0,45.24,0H144c6.23,0,12.57,2.96,18.09,8.31A87.469,87.469,0,0,1,112,488ZM86.35,384.28c12.94,0,32.94-2.34,57.65-12.79V400a32,32,0,0,1-64,0V384.08C81.88,384.2,83.99,384.28,86.35,384.28ZM80,368.03V368a32.042,32.042,0,0,1,32-32c12.65,0,23.86,8.04,29.01,19.34-19.84,8.84-36.12,11.77-46.71,12.62A90.9,90.9,0,0,1,80,368.03Zm40,79.29V456a8,8,0,0,1-16,0v-8.68a47.4,47.4,0,0,0,16,0Zm54.4,14.67C165.65,453.01,154.92,448,144,448h-8v-6.46A48.012,48.012,0,0,0,160,400V368c0-.23-.01-.45-.03-.68a49.189,49.189,0,0,0-13.93-32.66A47.093,47.093,0,0,0,112,320a48.051,48.051,0,0,0-48,48v32a48.012,48.012,0,0,0,24,41.54V448H80c-10.92,0-21.65,5.01-30.4,13.99a88,88,0,1,1,124.8,0Zm38.97-85.26a104.332,104.332,0,0,0-78.1-78.1c-.31-.88-.6-1.75-.89-2.63h67.68c2.32,21.94,6.55,42.09,12.45,58.83,3.88,10.99,8.06,19.41,12.33,25.84A127.933,127.933,0,0,1,213.37,376.73ZM256,384c-13.68,0-31.77-32.65-37.88-88h75.76C287.77,351.35,269.68,384,256,384Zm29.16-3.33c4.27-6.43,8.45-14.85,12.33-25.84,5.9-16.74,10.13-36.89,12.45-58.83h67.68c-.29.88-.58,1.75-.89,2.63a104.332,104.332,0,0,0-78.1,78.1A127.933,127.933,0,0,1,285.16,380.67ZM400,488a87.469,87.469,0,0,1-50.09-15.69c5.52-5.35,11.86-8.31,18.09-8.31h9.38a23.99,23.99,0,0,0,45.24,0H432c6.23,0,12.57,2.96,18.09,8.31A87.469,87.469,0,0,1,400,488ZM374.35,384.28c12.94,0,32.94-2.34,57.65-12.79V400a32,32,0,0,1-64,0V384.08C369.88,384.2,371.99,384.28,374.35,384.28ZM368,368.03V368a32.042,32.042,0,0,1,32-32c12.65,0,23.86,8.04,29.01,19.34-19.84,8.84-36.12,11.77-46.71,12.62A90.9,90.9,0,0,1,368,368.03Zm40,79.29V456a8,8,0,0,1-16,0v-8.68a47.4,47.4,0,0,0,16,0Zm54.4,14.67C453.65,453.01,442.92,448,432,448h-8v-6.46A48.012,48.012,0,0,0,448,400V368c0-.23-.01-.45-.03-.68a49.189,49.189,0,0,0-13.93-32.66A47.093,47.093,0,0,0,400,320a48.051,48.051,0,0,0-48,48v32a48.012,48.012,0,0,0,24,41.54V448h-8c-10.92,0-21.65,5.01-30.4,13.99a88,88,0,1,1,124.8,0Z" fill="#000000" data-original="#000000" style="" class=""/></g></g></svg>
