<svg id="_x33_0" enable-background="new 0 0 64 64" height="512" viewBox="0 0 64 64" width="512" xmlns="http://www.w3.org/2000/svg" xmlns:xlink="http://www.w3.org/1999/xlink"><linearGradient id="SVGID_1_" gradientUnits="userSpaceOnUse" x1="32" x2="32" y1="63" y2="1"><stop offset="0" stop-color="#9f2fff"/><stop offset="1" stop-color="#0bb1d3"/></linearGradient><path d="m30.948 49.684-1.896.633c-.527-1.581-1.787-2.841-3.368-3.368l.633-1.896c2.174.723 3.907 2.456 4.631 4.631zm-11.948-40.684c0-3.157 8.172-4 13-4s13 .843 13 4-8.172 4-13 4-13-.843-13-4zm2.031 0c.563.754 4.503 2 10.969 2s10.406-1.246 10.969-2c-.563-.754-4.503-2-10.969-2s-10.406 1.246-10.969 2zm-6.031 0c0-3.649 2.949-8 17-8s17 4.351 17 8-2.949 8-17 8-17-4.351-17-8zm2 0c0 5.221 9.398 6 15 6s15-.779 15-6-9.398-6-15-6-15 .779-15 6zm46 22c0 1.505-.845 2.802-2.076 3.485.045.165.076.336.076.515 0 1.505-.845 2.802-2.076 3.485.045.165.076.336.076.515 0 1.505-.845 2.802-2.076 3.485.045.165.076.336.076.515 0 2.206-1.794 4-4 4h-9.527c-.517 2.194-1.409 4.291-2.651 6.182.693.314 1.178 1.009 1.178 1.818v6c0 1.103-.897 2-2 2h-16c-1.103 0-2-.897-2-2v-6c0-.809.485-1.504 1.178-1.818-1.242-1.89-2.133-3.988-2.651-6.182h-9.527c-2.206 0-4-1.794-4-4 0-.179.031-.35.076-.515-1.231-.683-2.076-1.98-2.076-3.485 0-.179.031-.35.076-.515-1.231-.683-2.076-1.98-2.076-3.485 0-.179.031-.35.076-.515-1.231-.683-2.076-1.98-2.076-3.485 0-1.103.897-2 2-2h12.528c1.905 0 3.618 1.059 4.472 2.764l1.006 2.012c.531-.477 1.226-.776 1.994-.776.395 0 .77.081 1.116.22.346-1.275 1.501-2.22 2.884-2.22.352 0 .686.072 1 .184v-9.184c0-1.654 1.346-3 3-3 1.383 0 2.539.945 2.884 2.22.346-.139.721-.22 1.116-.22 1.654 0 3 1.346 3 3v9h2c1.092 0 2.082.442 2.805 1.154l1.195-2.39c.854-1.705 2.566-2.764 4.472-2.764h12.528c1.103 0 2 .897 2 2zm-29-7v9h2v-9c0-.552-.448-1-1-1s-1 .448-1 1zm-4 9h2v-11c0-.552-.448-1-1-1s-1 .448-1 1zm-4 7c0 .552.448 1 1 1s1-.448 1-1v-6c0-.552-.448-1-1-1s-1 .448-1 1zm-4 0c0 .552.448 1 1 1s1-.448 1-1v-4c0-.552-.448-1-1-1s-1 .448-1 1zm-1.831 5c-.101-.796-.169-1.597-.169-2.403v-6.36l-1.789-3.578c-.512-1.023-1.54-1.659-2.683-1.659h-12.528c0 1.103.897 2 2 2h6v2h-6c-.001 0-.001 0-.002 0 .002 1.103.899 2 2.002 2h6v2h-6c-.001 0-.001 0-.002 0 .002 1.103.899 2 2.002 2h6v2h-6c-.001 0-.001 0-.002 0 .002 1.103.899 2 2.002 2zm19.831 10h-16v6h16zm2-18c0-1.103-.897-2-2-2h-10c0 1.307.886 2.44 2.152 2.758l6.467 1.616-.787 1.181c-1.264 1.896-2.185 3.978-2.736 6.186l-.126.503-1.939-.486.126-.502c.493-1.977 1.256-3.86 2.271-5.617l-3.759-.94c-.619-.155-1.176-.434-1.668-.792v1.093c0 1.654-1.346 3-3 3-.771 0-1.468-.301-2-.78-.532.48-1.229.78-2 .78-.349 0-.679-.071-.99-.181.048 3.67 1.285 7.255 3.497 10.181h12.987c2.256-2.985 3.505-6.656 3.505-10.403zm19-6h-12.528c-1.143 0-2.171.636-2.683 1.658l-1.853 3.706c.033.208.064.418.064.636v5.597c0 .807-.068 1.608-.169 2.403h9.169c1.103 0 2-.897 2-2h-6v-2h6c1.103 0 2-.897 2-2h-6v-2h6c1.103 0 2-.897 2-2h-6v-2h6c1.103 0 2-.897 2-2z" fill="url(#SVGID_1_)"/></svg>