<svg id="_x33_0" enable-background="new 0 0 64 64" height="512" viewBox="0 0 64 64" width="512" xmlns="http://www.w3.org/2000/svg" xmlns:xlink="http://www.w3.org/1999/xlink"><linearGradient id="SVGID_1_" gradientUnits="userSpaceOnUse" x1="32" x2="32" y1="63" y2="1"><stop offset="0" stop-color="#9f2fff"/><stop offset="1" stop-color="#0bb1d3"/></linearGradient><path d="m29 14c0-.552.448-1 1-1s1 .448 1 1-.448 1-1 1-1-.448-1-1zm8 0c0 .552.448 1 1 1s1-.448 1-1-.448-1-1-1-1 .448-1 1zm-3 9c-2.757 0-5-2.243-5-5v-1h10v1c0 2.757-2.243 5-5 5zm0-2c1.304 0 2.416-.836 2.829-2h-5.657c.412 1.164 1.524 2 2.828 2zm-.447-9.105.895-1.789c-.893-.447-1.448-1.344-1.448-2.342v-.764h-2v.764c0 1.76.978 3.343 2.553 4.131zm4 0 .895-1.789c-.893-.447-1.448-1.344-1.448-2.342v-.764h-2v.764c0 1.76.978 3.343 2.553 4.131zm25.447-.895v7.769c0 9.429-5.478 17.929-14 21.864v8.367h4v-6c0-1.103.897-2 2-2h6c1.103 0 2 .897 2 2v18c0 1.103-.897 2-2 2h-49.1c-6.01 0-10.9-4.89-10.9-10.9 0-3.104 1.209-6.023 3.404-8.218l4.079-4.079-2.2-4.4.51-.51c1.415-1.415 3.24-2.271 5.207-2.455v-2.238h1c5.049 0 6.821 1.777 7.328 2.487 2.138-1.806 4.744-2.994 7.55-3.395l1.315-.188.615-2.462c-2.482-.819-4.347-2.992-4.728-5.642h-.08c-2.206 0-4-1.794-4-4 0-.781.234-1.505.622-2.122l-.038-.135c-.376-1.327-.584-2.058-.584-3.743v-1.838c0-3.032 2.738-8.162 13-8.162s13 5.13 13 8.162v1.838c0 1.685-.208 2.416-.584 3.744l-.038.135c.388.616.622 1.34.622 2.121 0 2.206-1.794 4-4 4h-.08c-.382 2.65-2.247 4.823-4.729 5.644l.59 2.356h3.219c6.963 0 12.666-5.503 12.986-12.389l-.408-.204c-.974-.487-1.578-1.466-1.578-2.553 0-1.276.842-2.36 2-2.724v-.13c0-2.206 1.794-4 4-4s4 1.794 4 4zm-8 2.854c0 .326.181.619.473.765l.763.381h4.764v-4c0-1.103-.897-2-2-2s-2 .897-2 2v2h-1.146c-.471 0-.854.383-.854.854zm-13 17.146h-2v.929c0 1.041-.104 2.065-.276 3.071h2.456l.81-4.05c-.329.021-.656.05-.99.05zm-1 14h-14v3.38l2.447.489.146-.292c.487-.973 1.466-1.577 2.553-1.577 1.276 0 2.36.842 2.724 2h.13c2.206 0 4 1.794 4 4s-1.794 4-4 4h-8v4h14zm-16 7.1c0 1.005-.148 1.975-.404 2.9h4.404v-4.18l-4.199-.84c.127.693.199 1.401.199 2.12zm8-1.1v-1.146c0-.471-.383-.854-.854-.854-.326 0-.619.181-.765.473l-.381.763v4.764h4c1.103 0 2-.897 2-2s-.897-2-2-2zm-3.5-8h2.306c-1.129-1.449-2.016-3.044-2.651-4.742l-1.835 1.835zm4.5-9.923-1.12.448.738 1.475h.764l.738-1.475zm-1.639 7.213c.478.781 1.024 1.524 1.639 2.223.615-.699 1.161-1.442 1.639-2.223l-1.316-3.29h-.646zm-2.127-5.707c.19 1.147.493 2.265.922 3.333l.749-1.871-.888-1.775zm7.532 0-.783-.313-.888 1.775.749 1.871c.429-1.068.732-2.185.922-3.333zm.234-3.465-1.561.781 1.533.613c.007-.195.028-.387.028-.583zm-6.439.781-1.561-.781v.811c0 .196.021.388.028.583zm9.119 8.195-1.835-1.835c-.634 1.697-1.522 3.293-2.651 4.742h2.306zm4.32-23.094c0-1.103-.897-2-2-2v4c1.103 0 2-.897 2-2zm-20 2v-4c-1.103 0-2 .897-2 2s.897 2 2 2zm7 6h4c2.757 0 5-2.243 5-5v-9c0-1.103-.897-2-2-2v-2c2.206 0 4 1.794 4 4v2c.615 0 1.191.151 1.712.4.196-.753.288-1.334.288-2.4v-1.838c0-2.288-2.317-6.162-11-6.162s-11 3.874-11 6.162v1.838c0 1.066.092 1.647.288 2.4.521-.249 1.097-.4 1.712-.4v-2c0-2.206 1.794-4 4-4v2c-1.103 0-2 .897-2 2v9c0 2.757 2.243 5 5 5zm-.216 1.989-.619 2.475 2.835 1.418 2.835-1.418-.619-2.475c-.072.002-.143.011-.216.011h-4c-.073 0-.144-.009-.216-.011zm-6.552 5.072.588 2.939h2.456c-.172-1.006-.276-2.03-.276-3.071v-.626c-.956.149-1.881.408-2.768.758zm-4.873 3.379c-.374 1.615-1.184 3.1-2.385 4.301l-.26.259 3.882 3.882c1.141 1.141 2.008 2.479 2.585 3.935l.819.163v-2.98c0-1.103.897-2 2-2l-2.32-3.094 2.906-2.906h-3.406l-.806-4.03c-1.116.662-2.132 1.492-3.015 2.47zm-6.359-2.706c0 2.22.603 4.375 1.749 6.266h.137l.674-.674c1.242-1.241 1.957-2.869 2.034-4.612-.338-.356-1.519-1.312-4.593-1.486v.506zm-5.266 3.099 1.584 3.167h3.15c-.712-1.433-1.173-2.973-1.366-4.562-1.237.133-2.398.614-3.368 1.395zm5.366 25.167c4.907 0 8.9-3.993 8.9-8.9 0-2.57-1.001-4.987-2.818-6.804l-4.296-4.296h-5.771l-4.296 4.296c-1.818 1.817-2.819 4.234-2.819 6.804 0 4.907 3.993 8.9 8.9 8.9zm6.272 0h4.628v-4h-1.177c-.809 1.599-1.997 2.972-3.451 4zm26.628-4h6v-2h-6zm8-2v2h6v-2zm6-2v-2h-6v2zm-8 8v-2h-6v2zm8 0v-2h-6v2zm-6-18v2h6v-2zm0 6h6v-2h-6zm-2 2h-6v2h6zm8-32.231v-1.769h-4.051c-.449 6.765-5.387 12.318-11.865 13.678l-1.264 6.322h-3.406l2.906 2.906-2.32 3.094c1.103 0 2 .897 2 2v16h2v-10c0-1.103.897-2 2-2v-12h2v1.422c7.337-3.766 12-11.319 12-19.653zm-47 28.415v-2.184h-2v2h-2v3c0 1.654 1.346 3 3 3 .551 0 1 .449 1 1v1h-1c-.551 0-1-.449-1-1v-1h-2v1c0 1.302.839 2.402 2 2.816v2.184h2v-2h2v-3c0-1.654-1.346-3-3-3-.551 0-1-.449-1-1v-1h1c.551 0 1 .449 1 1v1h2v-1c0-1.302-.839-2.402-2-2.816z" fill="url(#SVGID_1_)"/></svg>