<?xml version="1.0"?>
<svg xmlns="http://www.w3.org/2000/svg" xmlns:xlink="http://www.w3.org/1999/xlink" xmlns:svgjs="http://svgjs.com/svgjs" version="1.1" width="512" height="512" x="0" y="0" viewBox="0 0 512 512" style="enable-background:new 0 0 512 512" xml:space="preserve" class=""><g><g xmlns="http://www.w3.org/2000/svg"><g><path d="m256 504.5s200.403-48.097 200.403-216.435v-197.151c0-6.761-4.241-12.795-10.602-15.085l-184.37-66.374c-3.51-1.264-7.351-1.264-10.861 0l-184.371 66.374c-6.361 2.29-10.602 8.324-10.602 15.085v197.151c0 168.339 200.403 216.435 200.403 216.435z" fill="#dbd8db" data-original="#dbd8db" style=""/><path d="m315.332 482.345-18.845.299c-.184.003.183-.002 0 0-23.001.288-44.72-5.035-66.073-13.591-29.174-11.689-72.517-33.171-105.134-68.577-5.905-6.41.614-23.063-4.44-30.41-6.313-9.178-23.92-9.319-28.388-20.045-7.606-18.26-12.119-38.834-12.119-61.957v-217.076l-14.135 4.841c-6.361 2.29-10.602 8.324-10.602 15.085v197.152c.001 168.338 200.404 216.434 200.404 216.434s26.053-6.296 59.332-22.155z" fill="#c9c5c9" data-original="#c9c5c9" style=""/><path d="m256 41.577-168.338 60.598v185.89c0 124.54 134.99 173.075 168.417 183.173 34.202-10.114 168.26-57.796 168.26-183.173v-185.89z" fill="#7ad7ee" data-original="#7ad7ee" style=""/><path d="m111.71 288.065c0 96.945 97.454 141.566 139.359 156.252 3.272 1.135 6.889 1.198 10.177.094 129.017-43.048 139.045-130.552 139.045-156.346v-168.988l-138.866-49.992c-3.491-1.253-7.359-1.253-10.85 0l-138.865 49.992z" fill="#b3e1f8" data-original="#b3e1f8" style=""/><path d="m332.998 128.136c-3.041 3.041-3.041 7.972 0 11.012l88.097 88.097c.934.934 2.064 1.481 3.244 1.841v-126.911l-48.074-17.305z" fill="#eceaec" data-original="#eceaec" style=""/><path d="m174.792 227.108h53.995v101.241h-53.995z" fill="#ffd18d" transform="matrix(.707 .707 -.707 .707 255.487 -61.342)" data-original="#ffd18d" style=""/><path d="m344.399 138.759-23.765 23.765c-10.436 10.436-24.005 17.164-38.629 19.153l-68.284 36.395 119.286 119.286 16.505-16.505c10.259-10.259 17.989-22.765 22.577-36.529l2.567-7.701c4.589-13.764 12.318-26.27 22.577-36.529l24.25-24.25z" fill="#f4aa73" data-original="#f4aa73" style=""/><path d="m398.587 238.742 22.898-22.898-77.086-77.085-23.765 23.766c-10.436 10.436-24.005 17.164-38.629 19.152l-21.129 2.874c-10.237 1.392-19.735 6.101-27.04 13.406l-20.115 20.115s17.003 17.003 17.003 17.003l20.11-20.11c3.587-3.587 8.251-5.899 13.277-6.583l21.136-2.874c13.239-1.799 25.957-6.592 37.155-13.798 4.139-2.663 9.059-3.847 13.981-3.847 7.252 0 14.207 2.881 19.335 8.009z" fill="#e29a6c" data-original="#e29a6c" style="" class=""/><path d="m327.794 322.6-78.112-78.112-81.277 81.277c-5.486 5.486-6.822 14.318-2.288 20.614 5.777 8.021 17.034 8.688 23.722 2-6.082 6.082-6.082 15.942 0 22.024s15.942 6.082 22.024 0c-6.082 6.082-6.082 15.942.001 22.025 6.082 6.082 15.942 6.082 22.024 0l10.279-10.279 12.039 12.039z" fill="#f4aa73" data-original="#f4aa73" style=""/><path d="m299.962 271.295-136.547-136.548-77.085 77.085 28.267 28.267c10.257 10.257 17.985 22.762 22.573 36.524l2.567 7.701c4.587 13.762 12.316 26.267 22.573 36.524l5.507 5.507 33.036-77.085h23.36c6.196 0 12.137 2.461 16.518 6.842l26.194 26.194c9.123 9.123 23.913 9.123 33.036 0 3.041-3.041 3.042-7.971.001-11.011z" fill="#ffd18d" data-original="#ffd18d" style=""/><path d="m159.987 269.027c-3.678-11.035-9.073-21.487-15.837-30.962-3.059-4.285-4.532-9.502-4.532-14.767 0-6.999 2.781-13.712 7.73-18.662l42.978-42.978-26.91-26.911-77.086 77.085 28.267 28.267c10.255 10.255 17.982 22.757 22.57 36.515l2.577 7.729c4.587 13.755 12.313 26.254 22.566 36.506l5.507 5.506 15.04-18.553c-9.793-9.141-17.119-21.52-20.311-31.096z" fill="#fbbd80" data-original="#fbbd80" style="" class=""/><g fill="#ffd18d"><path d="m268.853 405.62.252-.252c6.012-6.012 6.012-15.76 0-21.773l-2.306-2.306c-6.012-6.012-15.76-6.012-21.773 0l-.252.252c-6.012 6.012-6.012 15.76 0 21.773l2.306 2.306c6.013 6.012 15.761 6.012 21.773 0z" fill="#ffd18d" data-original="#ffd18d" style=""/><path d="m297.029 389.747.252-.252c6.012-6.012 6.012-15.76 0-21.773l-8.457-8.457c-6.012-6.012-15.76-6.012-21.773 0l-.252.252c-6.012 6.012-6.012 15.76 0 21.773l8.457 8.457c6.013 6.013 15.761 6.013 21.773 0z" fill="#ffd18d" data-original="#ffd18d" style=""/><path d="m321.86 370.53.252-.252c6.012-6.012 6.012-15.76 0-21.773l-11.264-11.264c-6.012-6.012-15.76-6.012-21.773 0l-.252.252c-6.012 6.012-6.012 15.76 0 21.772l11.264 11.264c6.013 6.013 15.761 6.013 21.773.001z" fill="#ffd18d" data-original="#ffd18d" style=""/><path d="m343.884 348.505.252-.252c6.012-6.012 6.012-15.76 0-21.773l-11.264-11.264c-6.012-6.012-15.76-6.012-21.773 0l-.252.252c-6.012 6.012-6.012 15.76 0 21.773l11.264 11.264c6.013 6.013 15.761 6.013 21.773 0z" fill="#ffd18d" data-original="#ffd18d" style=""/></g><path d="m424.339 229.086v-32.056l-51.541-51.541c-6.247-6.247-6.247-16.424 0-22.671l28.822-28.822-25.355-9.127-43.267 43.267c-3.04 3.041-3.04 7.972 0 11.012l88.097 88.097c.934.934 2.064 1.481 3.244 1.841z" fill="#dbd8db" data-original="#dbd8db" style=""/><path d="m87.662 229.052c1.117-.369 2.182-.918 3.07-1.807l88.097-88.097c3.041-3.041 3.041-7.971 0-11.012l-43.221-43.221-47.946 17.259z" fill="#eceaec" data-original="#eceaec" style=""/></g><g><path d="m458.944 72.589-200.403-72.145c-1.643-.592-3.438-.592-5.081 0l-200.404 72.145c-2.976 1.071-4.959 3.894-4.959 7.057v208.419c0 39.904 10.959 76.576 32.573 108.996 17.181 25.771 41.068 48.854 70.998 68.608 50.619 33.408 100.485 45.62 102.583 46.124.576.138 1.163.207 1.75.207s1.175-.069 1.75-.207c2.098-.504 51.964-12.716 102.583-46.124 29.93-19.754 53.817-42.837 70.998-68.608 21.614-32.42 32.573-69.092 32.573-108.996v-208.419c-.001-3.163-1.985-5.985-4.961-7.057zm-10.04 215.476c0 36.81-10.067 70.615-29.922 100.479-16.004 24.072-38.397 45.729-66.556 64.372-43.283 28.655-87.213 41.371-96.426 43.838-9.212-2.467-53.143-15.183-96.426-43.838-28.159-18.643-50.551-40.3-66.556-64.372-19.854-29.863-29.922-63.669-29.922-100.479v-203.148l192.904-69.445 192.903 69.445v203.148z" fill="#000000" data-original="#000000" style="" class=""/><path d="m253.46 34.523-168.339 60.602c-2.976 1.071-4.959 3.894-4.959 7.057v185.884c0 26.965 6.135 52.405 18.235 75.614 1.337 2.565 3.951 4.035 6.657 4.035 1.168 0 2.354-.274 3.461-.852 3.673-1.915 5.098-6.444 3.183-10.117-10.972-21.047-16.536-44.154-16.536-68.681v-53.921l1.433-1.433 13.025 13.025c9.368 9.367 16.534 20.962 20.723 33.529l2.563 7.689c4.921 14.766 13.34 28.388 24.346 39.394l1.225 1.225c-3.55 7.561-3.078 16.577 1.794 23.341 3.998 5.551 10.161 9.047 16.911 9.593.276.022.552.04.827.052.254 5.767 2.62 11.152 6.728 15.261 4.232 4.232 9.715 6.471 15.27 6.717.246 5.555 2.484 11.037 6.717 15.271 4.353 4.353 10.141 6.75 16.296 6.75 4.188 0 8.193-1.134 11.705-3.214 1.123 2.713 2.778 5.256 4.979 7.458l2.051 2.051c4.493 4.492 10.395 6.739 16.297 6.739 5.901 0 11.803-2.247 16.296-6.739v-.001c2.803-2.802 4.781-6.205 5.844-9.912 1.96.524 3.971.807 5.987.807 5.902 0 11.804-2.247 16.297-6.739v-.001c3.536-3.537 5.659-7.949 6.412-12.544.692.062 1.386.099 2.08.099 5.902 0 11.804-2.247 16.297-6.739 4.113-4.113 6.452-9.511 6.701-15.287 5.775-.249 11.173-2.588 15.286-6.701 4.353-4.354 6.75-10.141 6.75-16.297 0-3.561-.826-6.988-2.345-10.096l1.091-1.091c11.006-11.006 19.425-24.628 24.347-39.395l2.563-7.688c4.189-12.568 11.355-24.163 20.723-33.53l13.025-13.025 1.433 1.433v53.921c0 55.196-27.267 101.425-81.043 137.402-32.042 21.436-65.092 33.265-79.824 37.892-22.111-6.924-86.522-30.475-126.572-79.816-2.611-3.216-7.334-3.707-10.55-1.097s-3.707 7.334-1.097 10.55c42.944 52.907 109.45 77.341 136.05 85.391.708.214 1.44.321 2.172.321.735 0 1.47-.108 2.181-.324 14.059-4.271 50.579-16.766 85.98-40.449 58.195-38.933 87.703-89.356 87.703-149.869v-185.887c0-3.163-1.984-5.985-4.959-7.057l-80.161-28.858c-3.898-1.402-8.194.619-9.597 4.517-1.403 3.896.619 8.193 4.516 9.597l21.316 7.674-35.301 35.302c-2.885 2.885-4.474 6.72-4.474 10.8 0 4.079 1.589 7.915 4.474 10.801l.193.193-11.371 11.37c-9.917 9.918-23.051 16.268-36.984 17.88l-17.329 2.006c-4.115.477-7.064 4.198-6.588 8.312.442 3.822 3.685 6.639 7.441 6.639.288 0 .579-.017.872-.051l17.329-2.006c17.278-1.999 33.567-9.874 45.866-22.174l11.37-11.37 66.347 66.348-13.024 13.024c-11.005 11.006-19.424 24.628-24.347 39.395l-2.563 7.688c-4.189 12.568-11.355 24.163-20.724 33.531l-.193.193-5.69-5.691c-8.985-8.985-23.607-8.985-32.593 0-4.113 4.113-6.452 9.511-6.701 15.287-5.774.249-11.173 2.588-15.286 6.701s-6.452 9.511-6.701 15.286c-5.775.249-11.173 2.589-15.286 6.702-4.238 4.239-6.452 9.732-6.692 15.295-5.563.24-11.057 2.453-15.295 6.691-.003.003-.006.007-.009.01l-10.984 10.984c-1.52 1.521-3.541 2.357-5.69 2.357s-4.17-.837-5.689-2.356c-3.138-3.139-3.138-8.244 0-11.381l41.345-41.345c2.929-2.93 2.929-7.678 0-10.607-2.929-2.928-7.678-2.928-10.606 0l-41.345 41.345c-3.137 3.139-8.243 3.138-11.38.001-1.521-1.521-2.357-3.542-2.357-5.691s.837-4.17 2.357-5.689l41.345-41.345c2.929-2.93 2.929-7.678 0-10.607-2.929-2.928-7.678-2.928-10.606 0l-41.345 41.345c-1.671 1.673-3.983 2.522-6.346 2.331-2.392-.193-4.504-1.403-5.947-3.407-2.205-3.062-1.545-7.846 1.501-10.892l48.882-48.882c2.929-2.93 2.929-7.678 0-10.607-2.929-2.928-7.678-2.928-10.606 0l-44.167 44.167-.194-.194c-9.368-9.368-16.534-20.962-20.723-33.529l-2.563-7.69c-4.922-14.766-13.341-28.388-24.347-39.394l-13.024-13.024 66.347-66.348 121.122 121.122c.026.025.08.08.08.193 0 .112-.054.166-.08.193-2.988 2.987-6.961 4.634-11.187 4.634s-8.199-1.646-11.187-4.635l-26.149-26.148c-5.821-5.822-13.561-9.028-21.794-9.028h-23.321c-4.142 0-7.5 3.357-7.5 7.5s3.358 7.5 7.5 7.5h23.321c4.226 0 8.199 1.646 11.187 4.635l26.15 26.149c5.821 5.821 13.561 9.027 21.793 9.027 8.233 0 15.973-3.206 21.792-9.027 2.886-2.884 4.475-6.72 4.475-10.8s-1.588-7.915-4.474-10.801l-121.125-121.124.194-.194c2.884-2.885 4.473-6.721 4.473-10.8 0-4.08-1.589-7.915-4.474-10.8l-35.301-35.302 106.952-38.502 53.572 19.286c3.897 1.401 8.194-.619 9.597-4.517 1.403-3.897-.619-8.193-4.516-9.597l-56.113-20.2c-1.642-.591-3.438-.591-5.08.001zm84.798 99.439 40.293-40.294 38.288 13.784v105.478l-78.581-78.581c-.026-.026-.081-.081-.081-.194s.054-.167.081-.193zm-74.517 266.281c-3.138 3.14-8.243 3.14-11.38 0l-2.051-2.051c-3.138-3.138-3.138-8.242 0-11.38 1.569-1.569 3.629-2.354 5.69-2.354s4.122.784 5.69 2.354l2.051 2.051c1.52 1.52 2.357 3.54 2.357 5.689s-.837 4.171-2.357 5.691zm52.53-79.392c1.569-1.569 3.629-2.354 5.69-2.354s4.121.784 5.69 2.353l10.994 10.995c1.52 1.52 2.357 3.54 2.357 5.689s-.837 4.17-2.357 5.689c-3.138 3.14-8.243 3.14-11.38 0l-10.994-10.993c-3.138-3.137-3.138-8.241 0-11.379zm-21.987 21.987c1.569-1.569 3.629-2.354 5.69-2.354s4.122.784 5.69 2.354l10.994 10.993c3.138 3.138 3.138 8.242 0 11.38-3.137 3.139-8.243 3.139-11.381 0l-10.993-10.992c-1.521-1.521-2.357-3.542-2.357-5.691s.837-4.17 2.357-5.69zm-21.987 21.987c1.52-1.52 3.541-2.357 5.69-2.357s4.17.838 5.69 2.358l8.196 8.197c3.132 3.137 3.13 8.239-.005 11.376-3.139 3.137-8.243 3.137-11.381 0l-8.192-8.193c-1.52-1.52-2.356-3.54-2.356-5.689s.838-4.172 2.358-5.692zm-98.554-230.863c.026.025.08.08.08.192 0 .113-.055.168-.08.193l-78.582 78.583v-105.477l38.288-13.784z" fill="#000000" data-original="#000000" style="" class=""/></g></g></g></svg>
